<?xml version="1.0" standalone="no"?>
<!DOCTYPE svg PUBLIC "-//W3C//DTD SVG 20010904//EN"
 "http://www.w3.org/TR/2001/REC-SVG-20010904/DTD/svg10.dtd">
<svg version="1.0" xmlns="http://www.w3.org/2000/svg"
 width="1280.000000pt" height="960.000000pt" viewBox="0 0 1280.000000 960.000000"
 preserveAspectRatio="xMidYMid meet">

<g transform="translate(0.000000,960.000000) scale(0.100000,-0.100000)"
fill="#000000" stroke="none">
<path d="M5425 8934 c-509 -91 -1448 -550 -2205 -1077 -567 -395 -923 -722
-1230 -1132 -474 -632 -840 -1434 -1025 -2250 -238 -1050 -156 -2018 237
-2799 136 -272 357 -572 543 -739 391 -353 861 -575 1370 -649 139 -20 543
-17 680 5 709 116 1291 495 1641 1067 206 338 324 771 324 1190 0 192 -27 551
-56 745 -80 529 -325 914 -797 1253 -226 162 -385 249 -977 534 -746 359 -946
689 -711 1173 111 227 358 545 745 959 179 193 432 390 824 646 539 351 644
422 739 499 160 128 247 247 260 350 7 59 -18 148 -51 189 -45 53 -149 65
-311 36z"/>
<path d="M11640 8915 c-8 -2 -49 -9 -90 -15 -506 -82 -1567 -615 -2341 -1177
-590 -429 -928 -774 -1273 -1301 -515 -785 -843 -1704 -948 -2657 -17 -160
-18 -762 0 -905 85 -697 295 -1234 671 -1717 282 -363 779 -684 1265 -818 242
-66 350 -79 641 -80 273 0 340 6 543 51 173 39 342 98 517 183 716 347 1165
985 1256 1781 8 70 10 192 6 370 -9 377 -36 626 -93 855 -146 578 -571 1006
-1394 1403 -102 49 -255 123 -341 165 -440 211 -678 411 -771 646 -32 83 -32
256 0 361 54 171 177 378 367 615 102 128 400 466 506 575 169 174 494 410
1080 785 274 175 407 273 516 380 125 123 163 192 163 296 0 87 -34 159 -88
185 -34 16 -154 28 -192 19z"/>
</g>
</svg>
